#tb 0: 1001/24000
#media_type 0: video
#codec_id 0: rawvideo
#dimensions 0: 320x180
#sar 0: 1/1
0,          0,          0,        1,   230400, 0x9f192d87
0,          1,          1,        1,   230400, 0x49db27f5
0,          2,          2,        1,   230400, 0x8f8f2cb0
0,          3,          3,        1,   230400, 0x33a82b14
0,          4,          4,        1,   230400, 0x6f03275f
0,          5,          5,        1,   230400, 0x1fce2453
0,          6,          6,        1,   230400, 0x932925b3
0,          7,          7,        1,   230400, 0x9987dba9
0,          8,          8,        1,   230400, 0x9ba2dd04
0,          9,          9,        1,   230400, 0x37eadc31
0,         10,         10,        1,   230400, 0xda0518e2
0,         11,         11,        1,   230400, 0xb96718b5
0,         12,         12,        1,   230400, 0x0d63191e
0,         13,         13,        1,   230400, 0xfc561af0
0,         14,         14,        1,   230400, 0x22fd1b68
0,         15,         15,        1,   230400, 0xef631dc5
0,         16,         16,        1,   230400, 0xc0673745
0,         17,         17,        1,   230400, 0x56c933f6
0,         18,         18,        1,   230400, 0x3790359a
0,         19,         19,        1,   230400, 0xd3293d02
0,         20,         20,        1,   230400, 0xee513caa
0,         21,         21,        1,   230400, 0x0fc33c17
0,         22,         22,        1,   230400, 0x00c74991
0,         23,         23,        1,   230400, 0xa7de49f5
0,         24,         24,        1,   230400, 0xd99b485a
0,         25,         25,        1,   230400, 0x6aab47d2
0,         26,         26,        1,   230400, 0x2e434bf7
0,         27,         27,        1,   230400, 0x46a04b1d
0,         28,         28,        1,   230400, 0x135f49f8
0,         29,         29,        1,   230400, 0x50566b86
0,         30,         30,        1,   230400, 0xb0416d84
0,         31,         31,        1,   230400, 0x8f20840c
0,         32,         32,        1,   230400, 0xedbf8857
0,         33,         33,        1,   230400, 0x30d6d698
0,         34,         34,        1,   230400, 0xbc88d7a7
0,         35,         35,        1,   230400, 0xce869fa3
0,         36,         36,        1,   230400, 0xa973a0b1
0,         37,         37,        1,   230400, 0x4c93b3a5
0,         38,         38,        1,   230400, 0x3574b473
0,         39,         39,        1,   230400, 0xa96bc936
0,         40,         40,        1,   230400, 0x4a83b86d
0,         41,         41,        1,   230400, 0x3b68b7cb
0,         42,         42,        1,   230400, 0xc0feb869
0,         43,         43,        1,   230400, 0x1a7d9ed8
0,         44,         44,        1,   230400, 0xc32e9f12
0,         45,         45,        1,   230400, 0x30f29fa4
0,         46,         46,        1,   230400, 0x7b369f80
0,         47,         47,        1,   230400, 0x28249e03
0,         48,         48,        1,   230400, 0xf5c67eee
0,         49,         49,        1,   230400, 0x40728404
0,         50,         50,        1,   230400, 0xbf7383b0
0,         51,         51,        1,   230400, 0x446d84c9
0,         52,         52,        1,   230400, 0x5f678279
0,         53,         53,        1,   230400, 0x4d1d891d
0,         54,         54,        1,   230400, 0x173c866c
0,         55,         55,        1,   230400, 0x045988a6
0,         56,         56,        1,   230400, 0xf25f848f
0,         57,         57,        1,   230400, 0xd61c8d71
0,         58,         58,        1,   230400, 0x86428b1e
0,         59,         59,        1,   230400, 0xc6268c08
0,         60,         60,        1,   230400, 0xed9787e3
0,         61,         61,        1,   230400, 0xe7ef8a27
0,         62,         62,        1,   230400, 0x5dc09497
0,         63,         63,        1,   230400, 0x8ec490b6
0,         64,         64,        1,   230400, 0xc01d92e4
0,         65,         65,        1,   230400, 0xbf6a941d
0,         66,         66,        1,   230400, 0x53fd966a
0,         67,         67,        1,   230400, 0xa2138be9
0,         68,         68,        1,   230400, 0x2b868967
0,         69,         69,        1,   230400, 0x4c889564
0,         70,         70,        1,   230400, 0x6d8491ed
